<mxfile host="app.diagrams.net" modified="2022-05-26T19:42:30.708Z" agent="5.0 (Windows NT 10.0; Win64; x64) AppleWebKit/537.36 (KHTML, like Gecko) Chrome/101.0.4951.67 Safari/537.36" etag="rG8NcmmP4C7xFUyheXUi" version="16.6.2" type="github">
  <diagram id="R2lEEEUBdFMjLlhIrx00" name="Page-1">
    <mxGraphModel dx="745" dy="438" grid="1" gridSize="10" guides="1" tooltips="1" connect="1" arrows="1" fold="1" page="1" pageScale="1" pageWidth="850" pageHeight="1100" math="0" shadow="0" extFonts="Permanent Marker^https://fonts.googleapis.com/css?family=Permanent+Marker">
      <root>
        <mxCell id="0" />
        <mxCell id="1" parent="0" />
        <mxCell id="QuJlbiEvoSX6tZ317Iqp-10" value="" style="rounded=1;whiteSpace=wrap;html=1;fontSize=24;" vertex="1" parent="1">
          <mxGeometry x="215" y="120" width="255" height="70" as="geometry" />
        </mxCell>
        <mxCell id="QuJlbiEvoSX6tZ317Iqp-8" value="" style="rounded=0;whiteSpace=wrap;html=1;fontSize=24;" vertex="1" parent="1">
          <mxGeometry x="40" y="220" width="90" height="60" as="geometry" />
        </mxCell>
        <mxCell id="QuJlbiEvoSX6tZ317Iqp-1" value="&lt;font size=&quot;3&quot;&gt;Abu Dhabi&lt;/font&gt;" style="rounded=0;whiteSpace=wrap;html=1;" vertex="1" parent="1">
          <mxGeometry x="50" y="230" width="70" height="40" as="geometry" />
        </mxCell>
        <mxCell id="QuJlbiEvoSX6tZ317Iqp-2" value="" style="endArrow=none;html=1;rounded=0;fontSize=36;entryX=0;entryY=0.5;entryDx=0;entryDy=0;exitX=1;exitY=0.5;exitDx=0;exitDy=0;" edge="1" parent="1" source="QuJlbiEvoSX6tZ317Iqp-8" target="QuJlbiEvoSX6tZ317Iqp-4">
          <mxGeometry width="50" height="50" relative="1" as="geometry">
            <mxPoint x="140" y="250" as="sourcePoint" />
            <mxPoint x="230" y="250" as="targetPoint" />
          </mxGeometry>
        </mxCell>
        <mxCell id="QuJlbiEvoSX6tZ317Iqp-3" value="&lt;font style=&quot;font-size: 18px&quot;&gt;city&lt;/font&gt;" style="text;html=1;align=center;verticalAlign=middle;resizable=0;points=[];autosize=1;strokeColor=none;fillColor=none;fontSize=36;" vertex="1" parent="1">
          <mxGeometry x="155" y="205" width="40" height="60" as="geometry" />
        </mxCell>
        <mxCell id="QuJlbiEvoSX6tZ317Iqp-4" value="&lt;font style=&quot;font-size: 18px&quot;&gt;event&lt;/font&gt;" style="rounded=0;whiteSpace=wrap;html=1;" vertex="1" parent="1">
          <mxGeometry x="240" y="230" width="70" height="40" as="geometry" />
        </mxCell>
        <mxCell id="QuJlbiEvoSX6tZ317Iqp-5" value="" style="endArrow=none;html=1;rounded=0;fontSize=24;exitX=0.571;exitY=0;exitDx=0;exitDy=0;exitPerimeter=0;" edge="1" parent="1" source="QuJlbiEvoSX6tZ317Iqp-4">
          <mxGeometry width="50" height="50" relative="1" as="geometry">
            <mxPoint x="270" y="290" as="sourcePoint" />
            <mxPoint x="280" y="180" as="targetPoint" />
          </mxGeometry>
        </mxCell>
        <mxCell id="QuJlbiEvoSX6tZ317Iqp-7" value="&lt;font style=&quot;font-size: 18px&quot;&gt;event_role&lt;/font&gt;" style="rounded=0;whiteSpace=wrap;html=1;" vertex="1" parent="1">
          <mxGeometry x="220" y="140" width="110" height="40" as="geometry" />
        </mxCell>
        <mxCell id="QuJlbiEvoSX6tZ317Iqp-11" value="&lt;font style=&quot;font-size: 18px&quot;&gt;= &quot;conference&quot;&lt;/font&gt;" style="text;html=1;align=center;verticalAlign=middle;resizable=0;points=[];autosize=1;strokeColor=none;fillColor=none;fontSize=24;" vertex="1" parent="1">
          <mxGeometry x="335" y="140" width="130" height="40" as="geometry" />
        </mxCell>
        <mxCell id="QuJlbiEvoSX6tZ317Iqp-12" value="" style="endArrow=none;html=1;rounded=0;fontSize=11;exitX=0.446;exitY=1.009;exitDx=0;exitDy=0;exitPerimeter=0;" edge="1" parent="1" source="QuJlbiEvoSX6tZ317Iqp-8">
          <mxGeometry width="50" height="50" relative="1" as="geometry">
            <mxPoint x="270" y="280" as="sourcePoint" />
            <mxPoint x="80" y="320" as="targetPoint" />
          </mxGeometry>
        </mxCell>
        <mxCell id="QuJlbiEvoSX6tZ317Iqp-15" value="&lt;font style=&quot;font-size: 18px&quot;&gt;city&lt;/font&gt;" style="ellipse;whiteSpace=wrap;html=1;fontSize=11;" vertex="1" parent="1">
          <mxGeometry x="50" y="320" width="60" height="40" as="geometry" />
        </mxCell>
        <mxCell id="QuJlbiEvoSX6tZ317Iqp-16" value="" style="endArrow=none;html=1;rounded=0;fontSize=11;exitX=0.446;exitY=1.009;exitDx=0;exitDy=0;exitPerimeter=0;entryX=0.5;entryY=0;entryDx=0;entryDy=0;" edge="1" parent="1" target="QuJlbiEvoSX6tZ317Iqp-17">
          <mxGeometry width="50" height="50" relative="1" as="geometry">
            <mxPoint x="280.14" y="269.99999999999994" as="sourcePoint" />
            <mxPoint x="280" y="309.46" as="targetPoint" />
          </mxGeometry>
        </mxCell>
        <mxCell id="QuJlbiEvoSX6tZ317Iqp-17" value="&lt;font style=&quot;font-size: 18px&quot;&gt;event&lt;/font&gt;" style="ellipse;whiteSpace=wrap;html=1;fontSize=11;" vertex="1" parent="1">
          <mxGeometry x="250" y="320" width="60" height="40" as="geometry" />
        </mxCell>
        <mxCell id="QuJlbiEvoSX6tZ317Iqp-18" value="&lt;span style=&quot;color: rgb(0 , 0 , 0) ; font-family: &amp;#34;helvetica&amp;#34; ; font-size: 18px ; font-style: normal ; font-weight: 400 ; letter-spacing: normal ; text-align: center ; text-indent: 0px ; text-transform: none ; word-spacing: 0px ; background-color: rgb(248 , 249 , 250) ; display: inline ; float: none&quot;&gt;type_of&lt;/span&gt;" style="text;whiteSpace=wrap;html=1;fontSize=18;" vertex="1" parent="1">
          <mxGeometry x="80" y="280" width="50" height="40" as="geometry" />
        </mxCell>
        <mxCell id="QuJlbiEvoSX6tZ317Iqp-19" value="&lt;span style=&quot;color: rgb(0, 0, 0); font-family: helvetica; font-size: 18px; font-style: normal; font-weight: 400; letter-spacing: normal; text-align: center; text-indent: 0px; text-transform: none; word-spacing: 0px; background-color: rgb(248, 249, 250); display: inline; float: none;&quot;&gt;type_of&lt;/span&gt;" style="text;whiteSpace=wrap;html=1;fontSize=18;" vertex="1" parent="1">
          <mxGeometry x="280" y="280" width="80" height="40" as="geometry" />
        </mxCell>
      </root>
    </mxGraphModel>
  </diagram>
</mxfile>
